<?xml version="1.0" encoding="utf-8"?>
<!-- Generator: Adobe Illustrator 27.5.0, SVG Export Plug-In . SVG Version: 6.00 Build 0)  -->
<svg version="1.1" id="Layer_1" xmlns="http://www.w3.org/2000/svg" xmlns:xlink="http://www.w3.org/1999/xlink" x="0px" y="0px"
	 viewBox="0 0 300 250" style="enable-background:new 0 0 300 250;" xml:space="preserve">
<style type="text/css">
	.st0{fill:#FFFFFF;}
	.st1{display:none;}
	.st2{display:inline;fill:#FFFFFF;}
</style>
<g>
	<g>
		<g>
			<g>
				<path class="st0" d="M76.77,32.34c0,0,20.16-1.74,28.22,1.03c-1.38-0.43-32.42-9.22-51.6,59
					c-6.28,22.34-14.31,20.59-14.31,20.59s12.87,5.91,22.29-4.83c-0.8,0.88-12.01,14.03-5.07,54.51
					c4.19,24.43-2.09,29.55-2.09,29.55s12.57-1.86,19.08-21.87c0,0,10.7,23.27-1.16,39.09c0,0,19.78-2.79,22.34-15.36
					c-2.52,33.79,32.01,36.62,48.08,42.38c-20.61-18.3-25.62-46.69-25.62-46.69c-2.09,22.8,7.33,29.84,7.33,29.84
					c-16.47-6.48-25.56-29.08-26.68-44.36c-3.92,15.62-11.25,16.97-11.25,16.97s3.96-5.82-3.03-35.6
					c-6.98-29.78,6.05-46.54,6.05-46.54c-20.94,11.4-25.36,31.41-25.36,31.41c1.4-43.05,30.25-71.9,30.25-71.9
					c-13.73-0.7-25.36,10.94-25.36,10.94c16.52-49.1,50.49-42.47,50.49-42.47c-2.79-4.19-19.08-10.47-19.08-10.47
					c4.41-2.1,12.83-2.85,20.49-3.08c-0.28-0.42-0.56-0.84-0.85-1.23C108.31,21.76,88.39,21.19,76.77,32.34z"/>
				<path class="st0" d="M260.36,112.97c0,0-8.03,1.75-14.31-20.59c-19.19-68.23-50.23-59.43-51.6-59
					c8.06-2.77,28.22-1.03,28.22-1.03c-11.9-11.41-32.51-10.55-43.96-8.97c-0.25,0.35-0.5,0.73-0.75,1.1
					c7.84,0.2,16.65,0.94,21.2,3.1c0,0-16.29,6.28-19.08,10.47c0,0,33.97-6.63,50.49,42.47c0,0-11.63-11.63-25.36-10.94
					c0,0,28.85,28.85,30.25,71.9c0,0-4.42-20.01-25.36-31.41c0,0,13.03,16.75,6.05,46.54c-6.98,29.78-3.03,35.6-3.03,35.6
					s-7.33-1.35-11.25-16.97c-1.12,15.28-8.99,38.93-25.46,45.41c0,0,5.06-6.63,5.93-30.89c0,0-3.96,27.82-23.84,46.14
					c16.65-5.42,48.9-9.13,46.47-41.83c2.56,12.57,22.34,15.36,22.34,15.36c-11.87-15.82-1.16-39.09-1.16-39.09
					c6.52,20.01,19.08,21.87,19.08,21.87s-6.28-5.12-2.09-29.55c6.94-40.49-4.27-53.64-5.07-54.51
					C247.49,118.88,260.36,112.97,260.36,112.97z"/>
				<g class="st1">
					<path class="st2" d="M270.71,35.97c-18.06,0-32.76-14.04-32.76-31.3V0.29h-50.29l-0.99,8.76h42.78
						c2.11,18.65,17.54,33.49,36.89,35.46v85.2c0,48.72-27.96,93.11-72.95,115.84c-13.68,6.91-28.36,11.49-43.66,13.62
						c-15.3-2.13-29.99-6.71-43.66-13.62c-45-22.73-72.95-67.12-72.95-115.84v-85.2c19.35-1.97,34.77-16.81,36.89-35.46h139.8V0.29
						H61.47v4.38c0,17.26-14.69,31.3-32.75,31.3h-4.38v93.73c0,52.05,29.8,99.43,77.76,123.66c14.73,7.44,30.55,12.34,47.03,14.56
						l0.59,0.08l0.59-0.08c16.48-2.22,32.3-7.12,47.02-14.56c47.97-24.23,77.77-71.61,77.77-123.66V35.97H270.71z"/>
				</g>
			</g>
			<g>
				<path class="st0" d="M177.24,162.72c-2.49,4.32-7.91,6.07-12.38,3.86c-1.3-0.64-2.74-1.25-4.32-1.76
					c-9.23-3.02-14.3-2.93-23.26,0c-1.58,0.52-3.02,1.12-4.32,1.76c-4.47,2.21-9.89,0.47-12.38-3.86l-0.08-0.14c0,0,0,9.62,0,12.75
					c0,20.6,20.13,27.74,18.34,24.61c-1.79-3.13,0.45-10.74,0.45-10.74c3.19,9.95,7.95,13.9,9.4,14.92
					c0.09,0.06,0.16,0.11,0.22,0.15c0.06-0.04,0.14-0.09,0.22-0.15c1.45-1.02,6.2-4.97,9.39-14.92c0,0,2.24,7.61,0.45,10.74
					c-1.79,3.13,18.34-4.01,18.34-24.61c0-3.13,0-12.75,0-12.75L177.24,162.72z"/>
				<path class="st0" d="M166.99,143.22l-6,4.74h-23.86l-6-4.74c-0.67-0.98-2.2-0.51-2.2,0.68v10.9c0,1.52,1.53,2.53,2.94,1.96
					c6.6-2.7,15.95-3.08,17.2-3.12c1.25,0.04,10.59,0.42,17.2,3.12c1.4,0.57,2.94-0.44,2.94-1.96v-10.9
					C169.19,142.71,167.66,142.24,166.99,143.22z"/>
				<path class="st0" d="M186.95,131.58c7.25,2.16,14.49,5.27,21.63,9.3c-5.09-4.67-11.9-8.17-18.85-10.43
					c-0.05-1.6-0.2-3.22-0.58-4.9c-11.5-1.98-19.78-2.74-19.98-2.56c0.1-0.02,0.21-0.04,0.31-0.06c7.27-0.59,13.86-0.31,21.22,0.61
					c8.54,1.12,17.36,3.24,26.4,6.37c-7.43-4.47-16.77-7.14-25.71-8.26c-1.21-0.15-2.42-0.25-3.61-0.34
					c-0.48-1.22-1.03-2.45-1.73-3.69c-9.13-0.19-15.67,0.14-16.6,0.33c0.07-0.03,0.15-0.05,0.22-0.08
					c6.62-1.6,12.68-2.25,19.51-2.38c7.89-0.1,16.14,0.72,24.74,2.48c-7.38-3.28-16.17-4.56-24.4-4.41c-2,0.05-3.96,0.19-5.88,0.42
					c-0.66-0.9-1.37-1.8-2.17-2.7l0,0c-2.84-3.2-5.84-9.32-5.84-9.32c5.16,5.65,12.23,5.13,16.51,4.09
					c1.76-0.43,3.36-1.32,4.62-2.62c1.38-1.44,2.71-3.23,3.9-5.81c5.42-11.76,2.21-25.72-7.31-34.49l-5.99-5.51l-2.67-2.46
					c-12.39-10.1-21.54-9.21-31.55-3.05l-4.11,2.53l-4.11-2.53c-10.02-6.16-19.17-7.05-31.55,3.05l-2.67,2.46l-5.85,5.39
					c-9.56,8.8-12.81,22.79-7.42,34.61c1.16,2.55,2.46,4.31,3.81,5.73c1.19,1.25,2.7,2.14,4.37,2.58c4.22,1.11,11.6,1.88,16.95-3.98
					c0,0-3.63,7.38-6.68,10.17c-0.48,0.57-0.92,1.14-1.34,1.71c-1.49-0.14-3-0.24-4.53-0.28c-8.23-0.15-17.02,1.13-24.4,4.41
					c8.59-1.76,16.85-2.59,24.74-2.48c6.82,0.13,12.89,0.78,19.5,2.38c0.08,0.03,0.15,0.05,0.23,0.08c-1-0.21-8.19-0.56-18.04-0.29
					c-0.72,1.27-1.28,2.52-1.77,3.77c-0.71,0.06-1.41,0.13-2.13,0.21c-8.94,1.12-18.28,3.79-25.71,8.26
					c9.05-3.13,17.86-5.25,26.4-6.37c7.37-0.92,13.95-1.2,21.22-0.61c0.11,0.02,0.21,0.04,0.32,0.06c-0.21-0.18-9.2,0.65-21.48,2.82
					c-0.38,1.76-0.55,3.47-0.58,5.14c-6.43,2.27-12.62,5.59-17.35,9.93c7.15-4.02,14.38-7.14,21.63-9.3
					c6.34-1.84,12.15-2.98,18.74-3.37c0.11,0.01,0.21,0,0.32,0.01c-0.24-0.17-10.48,2.44-23.08,7.12
					c1.57,11.28,9.36,19.34,9.36,19.34c-0.47-1.66-0.68-3.24-0.71-4.75c-0.12-7.24,4.78-13.5,11.58-15.98
					c11.89-4.33,17.66-10.32,19.73-12.89l-1.16-8.17c-5.65-3.64-2.86-7.28-6.44-9.89c-1.32-0.96-2.41-0.85-3.2-0.46
					c-1.4,0.69-3.07,0.43-4.18-0.68c-2.79-2.81-3.42-6.46-3.42-6.46c6.39,3.52,8.65-1.89,18.71-1.74
					c9.92,0.15,10.22,4.36,19.15,1.74c0,0-0.63,3.66-3.42,6.46c-1.1,1.11-2.78,1.37-4.18,0.68c-0.79-0.39-1.88-0.5-3.2,0.46
					c-3.58,2.61-0.79,6.24-6.44,9.88l-1.17,8.24c2.1,2.61,7.88,8.53,19.67,12.82c7.38,2.69,12.38,10.02,11.47,17.82
					c-0.11,0.94-0.3,1.91-0.58,2.91c0,0,8.04-8.3,9.44-19.85c-11.96-4.36-21.47-6.77-21.7-6.61c0.1-0.01,0.21-0.01,0.31-0.01
					C174.8,128.6,180.61,129.74,186.95,131.58z M135.43,79.79c-2.72,2.81-4.37,8.31-4.29,12.49c-1.91-2.11-1.55-5.19-1.87-7.97
					c-0.25-2.17-1.54-3.17-3.71-2.95c-3.4,0.35-7.02-1.85-8.5-4.07c-1.02-1.52-2.85-2.84-4.68-2.93l-5.91,0.17
					c0,0,9.84-5.06,15.75-3.85c1.92,0.39,3.99,1.52,5.99,2.79c7.29,4.62,10.85-3.98,10.85-3.99
					C139.07,69.47,140.05,75.02,135.43,79.79z M167.73,92.28c0.08-4.18-1.56-9.68-4.29-12.49c-4.62-4.77-3.64-10.32-3.64-10.32
					c0,0,3.57,8.6,10.85,3.99c2-1.27,4.07-2.4,5.99-2.79c5.91-1.21,15.75,3.85,15.75,3.85l-5.91-0.17
					c-1.82,0.09-3.66,1.42-4.68,2.93c-1.49,2.22-5.11,4.42-8.5,4.07c-2.17-0.22-3.46,0.78-3.71,2.95
					C169.28,87.09,169.65,90.17,167.73,92.28z"/>
				<path class="st0" d="M126.32,75.32c-0.01,1.13-0.93,2.05-2.06,2.05c-1.14,0-2.07-0.92-2.07-2.07c0-0.71,0.38-1.31,0.93-1.68
					c-0.5-0.13-1.04-0.25-1.69-0.32c-0.26,0.37-0.45,0.79-0.54,1.26c-0.25,1.19,0.15,2.37,0.96,3.16c0.97,0.81,1.68,0.94,2.82,0.95
					c1.29-0.16,2.4-1.04,2.82-2.3C127.11,75.98,126.72,75.64,126.32,75.32z"/>
				<path class="st0" d="M177.99,74.56c-0.1-0.47-0.29-0.89-0.54-1.26c-0.67,0.08-1.24,0.2-1.75,0.34c0.53,0.37,0.9,0.96,0.9,1.66
					c0,1.14-0.92,2.07-2.07,2.07c-1.12,0-2.01-0.89-2.05-2c-0.38,0.3-0.75,0.63-1.1,0.99c0.43,1.27,1.54,2.15,2.82,2.3
					c1.14-0.01,1.85-0.14,2.82-0.95C177.84,76.93,178.25,75.75,177.99,74.56z"/>
			</g>
		</g>
	</g>
</g>
</svg>
